<svg width="24" height="24" viewBox="0 0 24 24" fill="none" xmlns="http://www.w3.org/2000/svg">
<path d="M12 1.91992C12.4935 1.91992 12.9139 2.27774 12.9941 2.76465L13.5078 5.88379L13.5498 6.10449C14.0149 8.36305 15.8258 10.113 18.1162 10.4902L21.2354 11.0059C21.7223 11.0861 22.0801 11.5065 22.0801 12C22.08 12.4934 21.7222 12.914 21.2354 12.9941L18.1162 13.5078C15.8257 13.8851 14.0148 15.6369 13.5498 17.8955L13.5078 18.1152L12.9941 21.2354C12.9138 21.7221 12.4934 22.0801 12 22.0801C11.5067 22.08 11.0861 21.7221 11.0059 21.2354L10.4912 18.1152C10.1138 15.8249 8.363 14.0138 6.10449 13.5488L5.88477 13.5078L2.76465 12.9941C2.27788 12.9139 1.92004 12.4933 1.91992 12C1.91992 11.5066 2.27784 11.0861 2.76465 11.0059L5.88477 10.4902L6.10449 10.4502C8.36314 9.98518 10.1139 8.17429 10.4912 5.88379L11.0059 2.76465L11.0244 2.67383C11.1387 2.23366 11.5376 1.92001 12 1.91992Z" fill="#141414"/>
<path fill-rule="evenodd" clip-rule="evenodd" d="M6.34136 6.3432C6.10704 6.57752 5.72714 6.57752 5.49283 6.3432L4.74273 5.59311C4.50841 5.35879 4.50841 4.97889 4.74273 4.74458C4.97704 4.51026 5.35694 4.51026 5.59126 4.74458L6.34136 5.49468C6.57567 5.72899 6.57567 6.10889 6.34136 6.3432Z" fill="#141414"/>
<path fill-rule="evenodd" clip-rule="evenodd" d="M6.34273 17.7043C6.10841 17.4699 5.72851 17.4699 5.4942 17.7043L4.74273 18.4557C4.50841 18.69 4.50841 19.0699 4.74273 19.3043C4.97704 19.5386 5.35694 19.5386 5.59126 19.3043L6.34273 18.5528C6.57704 18.3185 6.57704 17.9386 6.34273 17.7043Z" fill="#141414"/>
<path fill-rule="evenodd" clip-rule="evenodd" d="M17.7032 6.34458C17.9375 6.57889 18.3174 6.57889 18.5517 6.34458L19.3032 5.5931C19.5375 5.35879 19.5375 4.97889 19.3032 4.74458C19.0689 4.51026 18.689 4.51026 18.4546 4.74458L17.7032 5.49605C17.4689 5.73036 17.4689 6.11026 17.7032 6.34458Z" fill="#141414"/>
<path d="M16.2927 16.2927C16.6589 15.9266 17.2379 15.904 17.6306 16.2244L17.7068 16.2927L20.7068 19.2927L20.7752 19.3689C21.0955 19.7617 21.0729 20.3407 20.7068 20.7068C20.3407 21.0729 19.7617 21.0955 19.3689 20.7752L19.2927 20.7068L16.2927 17.7068L16.2244 17.6306C15.904 17.2379 15.9266 16.6589 16.2927 16.2927Z" fill="#141414"/>
</svg>
